<svg width="150" height="48" viewBox="0 0 150 48" fill="none" xmlns="http://www.w3.org/2000/svg">
<path d="M0.442843 46.7833C0.762137 47.1363 1.28425 47.4674 1.96501 47.4674C2.82751 47.4674 3.10363 47.0067 3.10363 46.6396C3.10363 46.0632 2.51625 45.9056 1.87866 45.7321C1.10252 45.5306 0.240021 45.3142 0.240021 44.3707C0.240021 43.5789 0.950902 43.0383 1.90075 43.0383C2.63975 43.0383 3.21307 43.2827 3.61872 43.7085L3.25625 44.1473C2.89378 43.7514 2.38572 43.5709 1.85657 43.5709C1.27622 43.5709 0.863548 43.8811 0.863548 44.3338C0.863548 44.8166 1.42181 44.9602 2.03831 45.1257C2.82851 45.3342 3.72716 45.5795 3.72716 46.5878C3.72716 47.2869 3.24821 47.999 1.94393 47.999C1.10252 47.999 0.487022 47.6818 0.0874023 47.235L0.442843 46.7833Z" fill="white"/>
<path d="M8.64209 43.1101H11.8109V43.6427H9.24353V45.1915H11.7597V45.7241H9.24353V47.3806H11.8099V47.9132H8.64209V43.1101Z" fill="white"/>
<path d="M16.5873 45.5156C16.5873 44.0395 17.6817 43.0312 19.0523 43.0312C19.9298 43.0312 20.5242 43.4421 20.9088 43.9817L20.4007 44.2629C20.1256 43.86 19.6246 43.5638 19.0523 43.5638C18.0151 43.5638 17.2108 44.3707 17.2108 45.5156C17.2108 46.6535 18.0161 47.4673 19.0523 47.4673C19.6246 47.4673 20.1256 47.1791 20.4007 46.7692L20.9158 47.0504C20.5102 47.598 19.9298 48.0009 19.0523 48.0009C17.6827 47.9999 16.5873 46.9916 16.5873 45.5156Z" fill="white"/>
<path d="M25.7002 43.1101H26.3016V46.0342C26.3016 46.9129 26.7806 47.4674 27.6722 47.4674C28.5638 47.4674 29.0427 46.9129 29.0427 46.0342V43.1101H29.6442V46.0412C29.6442 47.236 28.9845 48 27.6722 48C26.3599 48 25.7002 47.229 25.7002 46.0482V43.1101Z" fill="white"/>
<path d="M36.3575 46.0053H35.3936V47.9142H34.7921V43.1111H36.735C37.6196 43.1111 38.2501 43.6726 38.2501 44.5592C38.2501 45.4239 37.6557 45.8986 36.996 45.9564L38.3013 47.9152H37.5905L36.3575 46.0053ZM36.6617 43.6427H35.3936V45.4787H36.6627C37.235 45.4787 37.6266 45.0967 37.6266 44.5572C37.6266 44.0176 37.235 43.6427 36.6617 43.6427Z" fill="white"/>
<path d="M43.2152 43.1101H43.8166V47.9132H43.2152V43.1101Z" fill="white"/>
<path d="M50.1603 43.6427H48.6301V43.1101H52.299V43.6427H50.7618V47.9132H50.1603V43.6427Z" fill="white"/>
<path d="M58.5193 45.8827L56.6125 43.1101H57.3154L58.8165 45.3431L60.3176 43.1101H61.0204L59.1207 45.8827V47.9132H58.5193V45.8827Z" fill="white"/>
<path d="M71.6062 43.1101H73.2599C74.761 43.1101 75.74 44.1543 75.74 45.5156C75.74 46.884 74.761 47.9142 73.2599 47.9142H71.6062V43.1101ZM73.2599 47.3806C74.4347 47.3806 75.1154 46.5449 75.1154 45.5156C75.1154 44.4784 74.4558 43.6427 73.2599 43.6427H72.2086V47.3806H73.2599Z" fill="white"/>
<path d="M80.698 43.1101H83.8669V43.6427H81.2995V45.1915H83.8157V45.7241H81.2995V47.3806H83.8659V47.9132H80.697V43.1101H80.698Z" fill="white"/>
<path d="M88.8391 43.1101H89.4406V47.3806H91.6887V47.9132H88.8391V43.1101Z" fill="white"/>
<path d="M96.5524 43.1101H97.1538V47.9132H96.5524V43.1101Z" fill="white"/>
<path d="M101.802 43.1101H102.49L104.122 47.258L105.754 43.1101H106.442L104.492 47.9132H103.745L101.802 43.1101Z" fill="white"/>
<path d="M111.088 43.1101H114.257V43.6427H111.691V45.1915H114.207V45.7241H111.691V47.3806H114.257V47.9132H111.088V43.1101Z" fill="white"/>
<path d="M120.796 46.0053H119.832V47.9142H119.23V43.1111H121.173C122.058 43.1111 122.688 43.6726 122.688 44.5592C122.688 45.4239 122.094 45.8986 121.434 45.9564L122.739 47.9152H122.029L120.796 46.0053ZM121.1 43.6427H119.831V45.4787H121.1C121.673 45.4787 122.064 45.0967 122.064 44.5572C122.065 44.0176 121.673 43.6427 121.1 43.6427Z" fill="white"/>
<path d="M127.653 43.1101H130.822V43.6427H128.256V45.1915H130.772V45.7241H128.256V47.3806H130.822V47.9132H127.653V43.1101Z" fill="white"/>
<path d="M135.795 43.1101H137.448C138.949 43.1101 139.928 44.1543 139.928 45.5156C139.928 46.884 138.949 47.9142 137.448 47.9142H135.795V43.1101ZM137.448 47.3806C138.623 47.3806 139.305 46.5449 139.305 45.5156C139.305 44.4784 138.645 43.6427 137.448 43.6427H136.397V47.3806H137.448Z" fill="white"/>
<path d="M0 2.79248H6.34472V32.3939H0V2.79248Z" fill="white"/>
<path d="M24.4391 8.34057H15.7268V2.79248H39.4961V8.33957H30.828V32.3929H24.4391V8.34057Z" fill="white"/>
<path d="M49.9957 23.429C52.0962 25.6041 55.3574 27.4232 59.4681 27.4232C62.9532 27.4232 64.6511 25.7806 64.6511 24.0952C64.6511 21.8761 62.0596 21.1212 58.6196 20.3233C53.7489 19.2143 47.4946 17.8829 47.4946 11.2696C47.4946 6.34387 51.7839 2.34961 58.7984 2.34961C63.5346 2.34961 67.4665 3.76979 70.4155 6.47652L66.8862 11.0921C64.4734 8.87308 61.2563 7.85282 58.3526 7.85282C55.493 7.85282 53.9738 9.09548 53.9738 10.8707C53.9738 12.8673 56.476 13.4897 59.9159 14.2875C64.8308 15.3965 71.0862 16.8616 71.0862 23.43C71.0862 28.8444 67.1994 32.9274 59.1568 32.9274C53.4376 32.9274 49.327 31.0196 46.5126 28.2231L49.9957 23.429Z" fill="white"/>
<path d="M113.35 17.6155C113.35 8.51799 120.277 2.30469 128.989 2.30469C135.78 2.30469 139.578 5.85515 141.678 9.53825L136.227 12.2011C134.976 9.80453 132.295 7.89666 128.989 7.89666C123.806 7.89666 119.874 12.0236 119.874 17.6155C119.874 23.2075 123.806 27.3344 128.989 27.3344C132.295 27.3344 134.976 25.4704 136.227 23.03L141.678 25.6489C139.534 29.3321 135.78 32.9274 128.989 32.9274C120.276 32.9264 113.35 26.7131 113.35 17.6155Z" fill="white"/>
<path d="M105.94 14.6807C105.94 14.6807 104.008 19.9056 97.3064 20.0253H79.0464C79.0464 20.0253 81.2373 14.7624 87.4545 14.6807H105.94Z" fill="#EE3726"/>
<path d="M105.94 2.4834C105.94 2.4834 104.008 7.70836 97.3064 7.82803H79.0464C79.0464 7.82803 81.2373 2.56518 87.4545 2.4834H105.94Z" fill="#EE3726"/>
<path d="M105.94 27.1272C105.94 27.1272 104.008 32.3522 97.3064 32.4718H79.0464C79.0464 32.4718 81.2373 27.209 87.4545 27.1272H105.94Z" fill="#EE3726"/>
<path d="M145.398 2.78452V0.429845H144.56V0H146.722V0.429845H145.883V2.78452H145.398Z" fill="white"/>
<path d="M149.515 2.78452V0.634295L148.669 2.78452H148.462L147.611 0.634295V2.78452H147.126V0H147.811L148.566 1.91186L149.315 0H150V2.78452H149.515Z" fill="white"/>
</svg>
